<svg preserveAspectRatio="xMidYMid meet" width="100%" height="100%" overflow="visible" style="display: block;" viewBox="0 0 16 16" fill="none" xmlns="http://www.w3.org/2000/svg">
<g id="fluent:animal-turtle-24-filled">
<path id="Vector" d="M7.33141 3.99805C8.1818 3.99809 9.01106 4.26298 9.70399 4.75592C10.3969 5.24886 10.9191 5.94538 11.1981 6.74871L11.2481 6.90405L11.2774 7.00005H12.8307C13.2975 7.00019 13.7466 7.17835 14.0865 7.4982C14.4264 7.81805 14.6316 8.25551 14.6601 8.72138L14.6634 8.83271V9.49938C14.6632 9.79206 14.5531 10.074 14.3547 10.2892C14.1564 10.5045 13.8844 10.6373 13.5927 10.6614L13.4974 10.6647H12.4134L12.5741 11.054C12.6852 11.3238 12.6911 11.6254 12.5908 11.8994C12.4905 12.1734 12.2911 12.3998 12.0321 12.534L11.9407 12.5767C11.835 12.6199 11.7237 12.6477 11.6101 12.6594L11.4961 12.6647H10.3047C10.1011 12.6646 9.90103 12.6112 9.72442 12.5098C9.54782 12.4084 9.40083 12.2625 9.29808 12.0867L9.25008 11.9954L8.89075 11.2334L8.92675 11.2287C7.99341 11.3527 7.04875 11.3674 6.11275 11.2727L5.78141 11.2347L5.42475 11.992C5.33052 12.1923 5.18125 12.3617 4.99439 12.4803C4.80752 12.599 4.59076 12.662 4.36941 12.662H3.16675C2.97521 12.662 2.78665 12.6147 2.61769 12.5245C2.44874 12.4343 2.3046 12.3039 2.19799 12.1447C2.09138 11.9856 2.02559 11.8027 2.00642 11.6121C1.98725 11.4216 2.0153 11.2292 2.08808 11.052L2.37675 10.352C2.05711 10.1598 1.79271 9.88804 1.60928 9.56325C1.42586 9.23846 1.32967 8.87171 1.33008 8.49871C1.33025 8.378 1.37407 8.26143 1.45348 8.17051C1.53288 8.07959 1.64249 8.02046 1.76208 8.00405L1.83008 7.99938H3.08341L3.41475 6.90405C3.66948 6.0636 4.18777 5.32735 4.89305 4.80407C5.59833 4.28078 6.4532 3.99819 7.33141 3.99805ZM11.8494 10.46C11.3347 10.6667 10.8112 10.8367 10.2787 10.97L9.91275 11.056L10.1541 11.5694C10.1702 11.604 10.1978 11.632 10.2321 11.6487L10.2674 11.6607L10.3047 11.6654H11.4961C11.5196 11.6654 11.5429 11.6603 11.5644 11.6507C11.5859 11.641 11.6051 11.6269 11.6207 11.6092C11.6363 11.5916 11.648 11.5708 11.6551 11.5483C11.6621 11.5258 11.6642 11.5021 11.6614 11.4787L11.6501 11.4354L11.3314 10.6647H11.3027L11.5767 10.566L11.8494 10.46ZM2.81475 10.46L3.07475 10.5614L3.33341 10.6554L3.01208 11.4327C3.00166 11.4581 2.99766 11.4856 3.00043 11.5129C3.00319 11.5401 3.01264 11.5663 3.02794 11.5891C3.04324 11.6118 3.0639 11.6304 3.08812 11.6433C3.11233 11.6561 3.13934 11.6628 3.16675 11.6627H4.36941L4.40741 11.658C4.43198 11.6524 4.45495 11.6412 4.47458 11.6254C4.49421 11.6096 4.50999 11.5895 4.52075 11.5667L4.76008 11.058L4.78941 11.0647C4.11506 10.9205 3.45439 10.7184 2.81475 10.4607M2.68008 9.33138L2.78075 8.99805L2.44275 8.99938L2.45941 9.03405C2.51719 9.14516 2.59119 9.24427 2.68008 9.33138ZM11.5801 7.99938L12.0841 9.66471L13.4974 9.66538C13.5349 9.66535 13.5712 9.65271 13.6006 9.62948C13.63 9.60626 13.6507 9.57382 13.6594 9.53738L13.6641 9.49871V8.83271C13.664 8.62652 13.5875 8.42768 13.4493 8.27462C13.3112 8.12156 13.1212 8.02516 12.9161 8.00405L12.8307 8.00005L11.5801 7.99938Z" fill="var(--fill-0, #2C2C2C)"/>
</g>
</svg>
