<svg preserveAspectRatio="xMidYMid meet" width="100%" height="100%" overflow="visible" style="display: block;" viewBox="0 0 16 16" fill="none" xmlns="http://www.w3.org/2000/svg">
<g id="mdi:rabbit">
<path id="Vector" d="M12.0333 14L10.2133 10.84C10.2133 9.68667 9.5 8.94667 8.63333 8.94667C8.03333 8.94667 7.51333 9.28 7.24667 9.77333C7.46667 9.64667 7.72667 9.58 8 9.58C8.86667 9.58 9.57333 10.2867 9.57333 11.1533C9.57333 12.0267 8.87333 12.74 8 12.74H10.2V14H4.52667C4.36667 14 4.2 13.94 4.08 13.8133C3.96194 13.6947 3.89567 13.5341 3.89567 13.3667C3.89567 13.1993 3.96194 13.0387 4.08 12.92L4.41333 12.5867C4.18667 12.4867 4 12.3333 3.81333 12.1733C3.66667 12.5067 3.33333 12.74 2.94667 12.74C2.69471 12.74 2.45307 12.6399 2.27492 12.4618C2.09676 12.2836 1.99667 12.042 1.99667 11.79C1.99667 11.538 2.09676 11.2964 2.27492 11.1182C2.45307 10.9401 2.69471 10.84 2.94667 10.84L3.26 10.8933V9.58C3.25912 9.16478 3.34026 8.75347 3.49875 8.36968C3.65724 7.9859 3.88997 7.63719 4.18358 7.34358C4.47719 7.04997 4.8259 6.81724 5.20968 6.65875C5.59347 6.50026 6.00478 6.41912 6.42 6.42H6.43333C7.84667 6.42667 8.94667 6.98 8.94667 6.10667C8.94667 5.48667 9.08 5.24 9.30667 4.89333C8.82 4.66667 8.26667 4.52667 7.68667 4.52667C7.33333 4.52667 7.05333 4.24667 7.05333 3.89333C7.05333 3.60667 7.24 3.36667 7.5 3.28667L7.05333 3.26C6.70667 3.26 6.42 2.98 6.42 2.63333C6.42 2.28 6.70667 2 7.05333 2H7.68667C9.08667 2 10.3133 2.76667 10.9733 3.9L11.16 3.89333C11.6333 3.89333 12.0733 4.04667 12.4333 4.3L12.7333 4.55333C14.18 5.85333 14 6.73333 14 6.74C14 7.59333 13.2933 8.29333 12.4333 8.29333L12.1067 8.26V8.31333C12.1067 9.05333 11.7867 9.71333 11.2867 10.18L13.4933 14H12.0333ZM12.1067 5.16C11.7533 5.16 11.4733 5.44 11.4733 5.78667C11.4733 6.14 11.7533 6.42 12.1067 6.42C12.4533 6.42 12.74 6.14 12.74 5.78667C12.74 5.44 12.4533 5.16 12.1067 5.16Z" fill="var(--fill-0, #2C2C2C)"/>
</g>
</svg>
