<svg preserveAspectRatio="xMidYMid meet" width="100%" height="100%" overflow="visible" style="display: block;" viewBox="0 0 24 24" fill="none" xmlns="http://www.w3.org/2000/svg">
<g id="my-logo">
<g id="Union">
<path d="M2.87676 14.6118C3.09018 14.2393 3.62078 14.24 3.83319 14.6131L7.55978 21.1592C7.7725 21.5329 7.50649 22 7.08102 22H1.84513C0.424631 22 -0.46153 20.4383 0.252161 19.1927L2.87676 14.6118Z" fill="url(#paint0_linear_0_166)"/>
<path d="M9.88968 2.37188C10.1738 1.87603 10.8799 1.87605 11.164 2.37188L20.8014 19.1927C21.515 20.4383 20.629 21.9999 19.2086 22H13.5693C13.306 22 13.0628 21.8575 12.9311 21.6263L6.13053 9.68017C5.99853 9.44829 5.99899 9.16246 6.13161 8.93095L9.88968 2.37188Z" fill="url(#paint1_linear_0_166)"/>
<path d="M22.1549 2.0073C23.5754 2.0073 24.4615 3.56895 23.7478 4.81461L21.1234 9.39552C20.91 9.76801 20.3792 9.7673 20.1668 9.39424L16.4402 2.84813C16.2275 2.47443 16.4935 2.0073 16.919 2.0073H22.1549Z" fill="url(#paint2_linear_0_166)"/>
</g>
</g>
<defs>
<linearGradient id="paint0_linear_0_166" x1="12" y1="2" x2="12" y2="22" gradientUnits="userSpaceOnUse">
<stop stop-color="#95FFFF"/>
<stop offset="1" stop-color="#5552FF"/>
</linearGradient>
<linearGradient id="paint1_linear_0_166" x1="12" y1="2" x2="12" y2="22" gradientUnits="userSpaceOnUse">
<stop stop-color="#95FFFF"/>
<stop offset="1" stop-color="#5552FF"/>
</linearGradient>
<linearGradient id="paint2_linear_0_166" x1="12" y1="2" x2="12" y2="22" gradientUnits="userSpaceOnUse">
<stop stop-color="#95FFFF"/>
<stop offset="1" stop-color="#5552FF"/>
</linearGradient>
</defs>
</svg>
